<mxfile host="app.diagrams.net" agent="Mozilla/5.0 (Macintosh; Intel Mac OS X 10_15_7) AppleWebKit/537.36 (KHTML, like Gecko) Chrome/140.0.0.0 Safari/537.36" version="28.1.1">
  <diagram name="Trang-1" id="TldVgc0QVAQNcJrE_jkY">
    <mxGraphModel dx="1455" dy="2160" grid="1" gridSize="10" guides="1" tooltips="1" connect="1" arrows="1" fold="1" page="1" pageScale="1" pageWidth="827" pageHeight="1169" math="0" shadow="0">
      <root>
        <mxCell id="0" />
        <mxCell id="1" parent="0" />
        <mxCell id="c0JE4tnyjBpBKdoSzGa7-1" value="Admin" style="shape=umlActor;verticalLabelPosition=bottom;verticalAlign=top;html=1;outlineConnect=0;" vertex="1" parent="1">
          <mxGeometry x="10" y="340" width="30" height="60" as="geometry" />
        </mxCell>
        <mxCell id="c0JE4tnyjBpBKdoSzGa7-2" value="" style="rounded=0;whiteSpace=wrap;html=1;" vertex="1" parent="1">
          <mxGeometry x="80" y="-30" width="680" height="830" as="geometry" />
        </mxCell>
        <mxCell id="c0JE4tnyjBpBKdoSzGa7-3" value="Add Employee Profile" style="ellipse;whiteSpace=wrap;html=1;" vertex="1" parent="1">
          <mxGeometry x="120" y="30" width="120" height="80" as="geometry" />
        </mxCell>
        <mxCell id="c0JE4tnyjBpBKdoSzGa7-6" value="Generate Payroll Cost Report" style="ellipse;whiteSpace=wrap;html=1;" vertex="1" parent="1">
          <mxGeometry x="620" y="200" width="120" height="80" as="geometry" />
        </mxCell>
        <mxCell id="c0JE4tnyjBpBKdoSzGa7-8" value="Edit Employee Profile" style="ellipse;whiteSpace=wrap;html=1;" vertex="1" parent="1">
          <mxGeometry x="260" y="30" width="120" height="80" as="geometry" />
        </mxCell>
        <mxCell id="c0JE4tnyjBpBKdoSzGa7-16" value="Notify Employees of Policy Changes" style="ellipse;whiteSpace=wrap;html=1;" vertex="1" parent="1">
          <mxGeometry x="400" y="670" width="120" height="80" as="geometry" />
        </mxCell>
        <mxCell id="c0JE4tnyjBpBKdoSzGa7-17" value="Manage Working Hours" style="ellipse;whiteSpace=wrap;html=1;" vertex="1" parent="1">
          <mxGeometry x="620" y="440" width="120" height="80" as="geometry" />
        </mxCell>
        <mxCell id="c0JE4tnyjBpBKdoSzGa7-18" value="Generate Turnover Rate Report" style="ellipse;whiteSpace=wrap;html=1;" vertex="1" parent="1">
          <mxGeometry x="620" y="290" width="120" height="80" as="geometry" />
        </mxCell>
        <mxCell id="c0JE4tnyjBpBKdoSzGa7-19" value="Generate HR Report" style="ellipse;whiteSpace=wrap;html=1;" vertex="1" parent="1">
          <mxGeometry x="620" y="110" width="120" height="80" as="geometry" />
        </mxCell>
        <mxCell id="c0JE4tnyjBpBKdoSzGa7-22" value="Manage Public Holidays" style="ellipse;whiteSpace=wrap;html=1;" vertex="1" parent="1">
          <mxGeometry x="590" y="530" width="120" height="80" as="geometry" />
        </mxCell>
        <mxCell id="c0JE4tnyjBpBKdoSzGa7-23" value="View Change History" style="ellipse;whiteSpace=wrap;html=1;" vertex="1" parent="1">
          <mxGeometry x="260" y="670" width="120" height="80" as="geometry" />
        </mxCell>
        <mxCell id="c0JE4tnyjBpBKdoSzGa7-24" value="Manage Overtime Rate" style="ellipse;whiteSpace=wrap;html=1;" vertex="1" parent="1">
          <mxGeometry x="540" y="630" width="120" height="80" as="geometry" />
        </mxCell>
        <mxCell id="c0JE4tnyjBpBKdoSzGa7-25" value="Assign Employee Permissions" style="ellipse;whiteSpace=wrap;html=1;" vertex="1" parent="1">
          <mxGeometry x="540" y="30" width="120" height="80" as="geometry" />
        </mxCell>
        <mxCell id="c0JE4tnyjBpBKdoSzGa7-26" value="Delete Employee Profile" style="ellipse;whiteSpace=wrap;html=1;" vertex="1" parent="1">
          <mxGeometry x="400" y="30" width="120" height="80" as="geometry" />
        </mxCell>
        <mxCell id="c0JE4tnyjBpBKdoSzGa7-27" value="Login" style="ellipse;whiteSpace=wrap;html=1;" vertex="1" parent="1">
          <mxGeometry x="330" y="340" width="120" height="80" as="geometry" />
        </mxCell>
        <mxCell id="c0JE4tnyjBpBKdoSzGa7-28" value="Backup and Restore Data" style="ellipse;whiteSpace=wrap;html=1;" vertex="1" parent="1">
          <mxGeometry x="130" y="670" width="120" height="80" as="geometry" />
        </mxCell>
        <mxCell id="c0JE4tnyjBpBKdoSzGa7-29" style="rounded=0;orthogonalLoop=1;jettySize=auto;html=1;entryX=0;entryY=1;entryDx=0;entryDy=0;endArrow=none;endFill=0;" edge="1" parent="1" source="c0JE4tnyjBpBKdoSzGa7-1" target="c0JE4tnyjBpBKdoSzGa7-3">
          <mxGeometry relative="1" as="geometry" />
        </mxCell>
        <mxCell id="c0JE4tnyjBpBKdoSzGa7-31" style="rounded=0;orthogonalLoop=1;jettySize=auto;html=1;endArrow=none;endFill=0;entryX=0;entryY=0;entryDx=0;entryDy=0;" edge="1" parent="1" source="c0JE4tnyjBpBKdoSzGa7-1" target="c0JE4tnyjBpBKdoSzGa7-23">
          <mxGeometry relative="1" as="geometry">
            <mxPoint x="100" y="432" as="sourcePoint" />
            <mxPoint x="201" y="190" as="targetPoint" />
          </mxGeometry>
        </mxCell>
        <mxCell id="c0JE4tnyjBpBKdoSzGa7-32" style="rounded=0;orthogonalLoop=1;jettySize=auto;html=1;entryX=0.5;entryY=0;entryDx=0;entryDy=0;endArrow=none;endFill=0;" edge="1" parent="1" target="c0JE4tnyjBpBKdoSzGa7-28">
          <mxGeometry relative="1" as="geometry">
            <mxPoint x="40" y="390" as="sourcePoint" />
            <mxPoint x="201" y="190" as="targetPoint" />
          </mxGeometry>
        </mxCell>
        <mxCell id="c0JE4tnyjBpBKdoSzGa7-33" style="rounded=0;orthogonalLoop=1;jettySize=auto;html=1;entryX=0;entryY=0.5;entryDx=0;entryDy=0;endArrow=none;endFill=0;" edge="1" parent="1" target="c0JE4tnyjBpBKdoSzGa7-19">
          <mxGeometry relative="1" as="geometry">
            <mxPoint x="40" y="360" as="sourcePoint" />
            <mxPoint x="201" y="190" as="targetPoint" />
          </mxGeometry>
        </mxCell>
        <mxCell id="c0JE4tnyjBpBKdoSzGa7-34" style="rounded=0;orthogonalLoop=1;jettySize=auto;html=1;entryX=0;entryY=1;entryDx=0;entryDy=0;endArrow=none;endFill=0;" edge="1" parent="1" source="c0JE4tnyjBpBKdoSzGa7-1" target="c0JE4tnyjBpBKdoSzGa7-25">
          <mxGeometry relative="1" as="geometry">
            <mxPoint x="100" y="432" as="sourcePoint" />
            <mxPoint x="201" y="190" as="targetPoint" />
          </mxGeometry>
        </mxCell>
        <mxCell id="c0JE4tnyjBpBKdoSzGa7-35" style="rounded=0;orthogonalLoop=1;jettySize=auto;html=1;entryX=0;entryY=1;entryDx=0;entryDy=0;endArrow=none;endFill=0;" edge="1" parent="1" target="c0JE4tnyjBpBKdoSzGa7-26">
          <mxGeometry relative="1" as="geometry">
            <mxPoint x="40" y="340" as="sourcePoint" />
            <mxPoint x="201" y="190" as="targetPoint" />
          </mxGeometry>
        </mxCell>
        <mxCell id="c0JE4tnyjBpBKdoSzGa7-36" style="rounded=0;orthogonalLoop=1;jettySize=auto;html=1;entryX=0;entryY=1;entryDx=0;entryDy=0;endArrow=none;endFill=0;" edge="1" parent="1" target="c0JE4tnyjBpBKdoSzGa7-8">
          <mxGeometry relative="1" as="geometry">
            <mxPoint x="40" y="340" as="sourcePoint" />
            <mxPoint x="201" y="190" as="targetPoint" />
          </mxGeometry>
        </mxCell>
        <mxCell id="c0JE4tnyjBpBKdoSzGa7-37" style="rounded=0;orthogonalLoop=1;jettySize=auto;html=1;entryX=0;entryY=0.5;entryDx=0;entryDy=0;endArrow=none;endFill=0;" edge="1" parent="1" source="c0JE4tnyjBpBKdoSzGa7-1" target="c0JE4tnyjBpBKdoSzGa7-22">
          <mxGeometry relative="1" as="geometry">
            <mxPoint x="110" y="530" as="sourcePoint" />
            <mxPoint x="690" y="330" as="targetPoint" />
          </mxGeometry>
        </mxCell>
        <mxCell id="c0JE4tnyjBpBKdoSzGa7-38" style="rounded=0;orthogonalLoop=1;jettySize=auto;html=1;entryX=0;entryY=0;entryDx=0;entryDy=0;endArrow=none;endFill=0;exitX=0.75;exitY=0.1;exitDx=0;exitDy=0;exitPerimeter=0;" edge="1" parent="1" source="c0JE4tnyjBpBKdoSzGa7-1" target="c0JE4tnyjBpBKdoSzGa7-6">
          <mxGeometry relative="1" as="geometry">
            <mxPoint x="110" y="530" as="sourcePoint" />
            <mxPoint x="690" y="330" as="targetPoint" />
          </mxGeometry>
        </mxCell>
        <mxCell id="c0JE4tnyjBpBKdoSzGa7-39" style="rounded=0;orthogonalLoop=1;jettySize=auto;html=1;entryX=0;entryY=0;entryDx=0;entryDy=0;endArrow=none;endFill=0;exitX=1;exitY=0.3333333333333333;exitDx=0;exitDy=0;exitPerimeter=0;" edge="1" parent="1" source="c0JE4tnyjBpBKdoSzGa7-1" target="c0JE4tnyjBpBKdoSzGa7-24">
          <mxGeometry relative="1" as="geometry">
            <mxPoint x="110" y="530" as="sourcePoint" />
            <mxPoint x="690" y="330" as="targetPoint" />
          </mxGeometry>
        </mxCell>
        <mxCell id="c0JE4tnyjBpBKdoSzGa7-40" style="rounded=0;orthogonalLoop=1;jettySize=auto;html=1;entryX=0;entryY=0;entryDx=0;entryDy=0;endArrow=none;endFill=0;exitX=1;exitY=0.3333333333333333;exitDx=0;exitDy=0;exitPerimeter=0;" edge="1" parent="1" source="c0JE4tnyjBpBKdoSzGa7-1" target="c0JE4tnyjBpBKdoSzGa7-16">
          <mxGeometry relative="1" as="geometry">
            <mxPoint x="110" y="530" as="sourcePoint" />
            <mxPoint x="690" y="330" as="targetPoint" />
          </mxGeometry>
        </mxCell>
        <mxCell id="c0JE4tnyjBpBKdoSzGa7-42" style="rounded=0;orthogonalLoop=1;jettySize=auto;html=1;entryX=0;entryY=0;entryDx=0;entryDy=0;endArrow=none;endFill=0;" edge="1" parent="1" target="c0JE4tnyjBpBKdoSzGa7-18">
          <mxGeometry relative="1" as="geometry">
            <mxPoint x="40" y="360" as="sourcePoint" />
            <mxPoint x="805" y="300" as="targetPoint" />
          </mxGeometry>
        </mxCell>
        <mxCell id="c0JE4tnyjBpBKdoSzGa7-43" style="rounded=0;orthogonalLoop=1;jettySize=auto;html=1;entryX=0;entryY=1;entryDx=0;entryDy=0;endArrow=none;endFill=0;exitX=1;exitY=0.3333333333333333;exitDx=0;exitDy=0;exitPerimeter=0;" edge="1" parent="1" source="c0JE4tnyjBpBKdoSzGa7-1" target="c0JE4tnyjBpBKdoSzGa7-17">
          <mxGeometry relative="1" as="geometry">
            <mxPoint x="170" y="420" as="sourcePoint" />
            <mxPoint x="720" y="615" as="targetPoint" />
          </mxGeometry>
        </mxCell>
        <mxCell id="c0JE4tnyjBpBKdoSzGa7-44" value="&amp;lt;&amp;lt;include&amp;gt;&amp;gt;" style="html=1;verticalAlign=bottom;labelBackgroundColor=none;endArrow=open;endFill=0;dashed=1;rounded=0;exitX=0.5;exitY=1;exitDx=0;exitDy=0;entryX=0;entryY=0;entryDx=0;entryDy=0;" edge="1" parent="1" source="c0JE4tnyjBpBKdoSzGa7-3" target="c0JE4tnyjBpBKdoSzGa7-27">
          <mxGeometry width="160" relative="1" as="geometry">
            <mxPoint x="300" y="370" as="sourcePoint" />
            <mxPoint x="460" y="370" as="targetPoint" />
          </mxGeometry>
        </mxCell>
        <mxCell id="c0JE4tnyjBpBKdoSzGa7-45" value="&amp;lt;&amp;lt;include&amp;gt;&amp;gt;" style="html=1;verticalAlign=bottom;labelBackgroundColor=none;endArrow=open;endFill=0;dashed=1;rounded=0;exitX=0.5;exitY=1;exitDx=0;exitDy=0;entryX=0.5;entryY=0;entryDx=0;entryDy=0;" edge="1" parent="1" source="c0JE4tnyjBpBKdoSzGa7-8" target="c0JE4tnyjBpBKdoSzGa7-27">
          <mxGeometry width="160" relative="1" as="geometry">
            <mxPoint x="360" y="320" as="sourcePoint" />
            <mxPoint x="528" y="562" as="targetPoint" />
          </mxGeometry>
        </mxCell>
        <mxCell id="c0JE4tnyjBpBKdoSzGa7-46" value="&amp;lt;&amp;lt;include&amp;gt;&amp;gt;" style="html=1;verticalAlign=bottom;labelBackgroundColor=none;endArrow=open;endFill=0;dashed=1;rounded=0;exitX=0;exitY=0;exitDx=0;exitDy=0;entryX=0.704;entryY=0.906;entryDx=0;entryDy=0;entryPerimeter=0;" edge="1" parent="1" source="c0JE4tnyjBpBKdoSzGa7-22" target="c0JE4tnyjBpBKdoSzGa7-27">
          <mxGeometry width="160" relative="1" as="geometry">
            <mxPoint x="440" y="330" as="sourcePoint" />
            <mxPoint x="608" y="572" as="targetPoint" />
          </mxGeometry>
        </mxCell>
        <mxCell id="c0JE4tnyjBpBKdoSzGa7-47" value="&amp;lt;&amp;lt;include&amp;gt;&amp;gt;" style="html=1;verticalAlign=bottom;labelBackgroundColor=none;endArrow=open;endFill=0;dashed=1;rounded=0;exitX=0;exitY=0;exitDx=0;exitDy=0;" edge="1" parent="1" source="c0JE4tnyjBpBKdoSzGa7-17">
          <mxGeometry width="160" relative="1" as="geometry">
            <mxPoint x="440" y="330" as="sourcePoint" />
            <mxPoint x="432" y="400" as="targetPoint" />
          </mxGeometry>
        </mxCell>
        <mxCell id="c0JE4tnyjBpBKdoSzGa7-48" value="&amp;lt;&amp;lt;include&amp;gt;&amp;gt;" style="html=1;verticalAlign=bottom;labelBackgroundColor=none;endArrow=open;endFill=0;dashed=1;rounded=0;exitX=0;exitY=0.5;exitDx=0;exitDy=0;entryX=0.985;entryY=0.703;entryDx=0;entryDy=0;entryPerimeter=0;" edge="1" parent="1" source="c0JE4tnyjBpBKdoSzGa7-18" target="c0JE4tnyjBpBKdoSzGa7-27">
          <mxGeometry x="0.0014" width="160" relative="1" as="geometry">
            <mxPoint x="440" y="330" as="sourcePoint" />
            <mxPoint x="608" y="572" as="targetPoint" />
            <mxPoint as="offset" />
          </mxGeometry>
        </mxCell>
        <mxCell id="c0JE4tnyjBpBKdoSzGa7-49" value="&amp;lt;&amp;lt;include&amp;gt;&amp;gt;" style="html=1;verticalAlign=bottom;labelBackgroundColor=none;endArrow=open;endFill=0;dashed=1;rounded=0;exitX=0;exitY=1;exitDx=0;exitDy=0;entryX=1;entryY=0.5;entryDx=0;entryDy=0;" edge="1" parent="1" source="c0JE4tnyjBpBKdoSzGa7-6" target="c0JE4tnyjBpBKdoSzGa7-27">
          <mxGeometry width="160" relative="1" as="geometry">
            <mxPoint x="440" y="330" as="sourcePoint" />
            <mxPoint x="608" y="572" as="targetPoint" />
          </mxGeometry>
        </mxCell>
        <mxCell id="c0JE4tnyjBpBKdoSzGa7-50" value="&amp;lt;&amp;lt;include&amp;gt;&amp;gt;" style="html=1;verticalAlign=bottom;labelBackgroundColor=none;endArrow=open;endFill=0;dashed=1;rounded=0;exitX=0;exitY=1;exitDx=0;exitDy=0;entryX=0.944;entryY=0.313;entryDx=0;entryDy=0;entryPerimeter=0;" edge="1" parent="1" source="c0JE4tnyjBpBKdoSzGa7-19" target="c0JE4tnyjBpBKdoSzGa7-27">
          <mxGeometry width="160" relative="1" as="geometry">
            <mxPoint x="440" y="330" as="sourcePoint" />
            <mxPoint x="608" y="572" as="targetPoint" />
          </mxGeometry>
        </mxCell>
        <mxCell id="c0JE4tnyjBpBKdoSzGa7-51" value="&amp;lt;&amp;lt;include&amp;gt;&amp;gt;" style="html=1;verticalAlign=bottom;labelBackgroundColor=none;endArrow=open;endFill=0;dashed=1;rounded=0;exitX=0.5;exitY=1;exitDx=0;exitDy=0;entryX=1;entryY=0;entryDx=0;entryDy=0;" edge="1" parent="1" source="c0JE4tnyjBpBKdoSzGa7-25" target="c0JE4tnyjBpBKdoSzGa7-27">
          <mxGeometry width="160" relative="1" as="geometry">
            <mxPoint x="440" y="330" as="sourcePoint" />
            <mxPoint x="608" y="572" as="targetPoint" />
          </mxGeometry>
        </mxCell>
        <mxCell id="c0JE4tnyjBpBKdoSzGa7-52" value="&amp;lt;&amp;lt;include&amp;gt;&amp;gt;" style="html=1;verticalAlign=bottom;labelBackgroundColor=none;endArrow=open;endFill=0;dashed=1;rounded=0;exitX=0.5;exitY=1;exitDx=0;exitDy=0;entryX=0.704;entryY=0.078;entryDx=0;entryDy=0;entryPerimeter=0;" edge="1" parent="1" source="c0JE4tnyjBpBKdoSzGa7-26" target="c0JE4tnyjBpBKdoSzGa7-27">
          <mxGeometry width="160" relative="1" as="geometry">
            <mxPoint x="440" y="330" as="sourcePoint" />
            <mxPoint x="608" y="572" as="targetPoint" />
          </mxGeometry>
        </mxCell>
        <mxCell id="c0JE4tnyjBpBKdoSzGa7-54" value="&amp;lt;&amp;lt;include&amp;gt;&amp;gt;" style="html=1;verticalAlign=bottom;labelBackgroundColor=none;endArrow=open;endFill=0;dashed=1;rounded=0;exitX=1;exitY=0;exitDx=0;exitDy=0;entryX=0;entryY=1;entryDx=0;entryDy=0;" edge="1" parent="1" source="c0JE4tnyjBpBKdoSzGa7-28" target="c0JE4tnyjBpBKdoSzGa7-27">
          <mxGeometry width="160" relative="1" as="geometry">
            <mxPoint x="744" y="630" as="sourcePoint" />
            <mxPoint x="550" y="500" as="targetPoint" />
          </mxGeometry>
        </mxCell>
        <mxCell id="c0JE4tnyjBpBKdoSzGa7-55" value="&amp;lt;&amp;lt;include&amp;gt;&amp;gt;" style="html=1;verticalAlign=bottom;labelBackgroundColor=none;endArrow=open;endFill=0;dashed=1;rounded=0;exitX=0.5;exitY=0;exitDx=0;exitDy=0;entryX=0.246;entryY=0.969;entryDx=0;entryDy=0;entryPerimeter=0;" edge="1" parent="1" source="c0JE4tnyjBpBKdoSzGa7-23" target="c0JE4tnyjBpBKdoSzGa7-27">
          <mxGeometry width="160" relative="1" as="geometry">
            <mxPoint x="744" y="630" as="sourcePoint" />
            <mxPoint x="550" y="500" as="targetPoint" />
          </mxGeometry>
        </mxCell>
        <mxCell id="c0JE4tnyjBpBKdoSzGa7-56" value="&amp;lt;&amp;lt;include&amp;gt;&amp;gt;" style="html=1;verticalAlign=bottom;labelBackgroundColor=none;endArrow=open;endFill=0;dashed=1;rounded=0;exitX=0.5;exitY=0;exitDx=0;exitDy=0;entryX=0.371;entryY=0.984;entryDx=0;entryDy=0;entryPerimeter=0;" edge="1" parent="1" source="c0JE4tnyjBpBKdoSzGa7-16" target="c0JE4tnyjBpBKdoSzGa7-27">
          <mxGeometry width="160" relative="1" as="geometry">
            <mxPoint x="744" y="630" as="sourcePoint" />
            <mxPoint x="550" y="500" as="targetPoint" />
          </mxGeometry>
        </mxCell>
        <mxCell id="c0JE4tnyjBpBKdoSzGa7-57" value="&amp;lt;&amp;lt;include&amp;gt;&amp;gt;" style="html=1;verticalAlign=bottom;labelBackgroundColor=none;endArrow=open;endFill=0;dashed=1;rounded=0;exitX=0.5;exitY=0;exitDx=0;exitDy=0;entryX=0.5;entryY=1;entryDx=0;entryDy=0;" edge="1" parent="1" source="c0JE4tnyjBpBKdoSzGa7-24" target="c0JE4tnyjBpBKdoSzGa7-27">
          <mxGeometry width="160" relative="1" as="geometry">
            <mxPoint x="744" y="630" as="sourcePoint" />
            <mxPoint x="550" y="500" as="targetPoint" />
          </mxGeometry>
        </mxCell>
        <mxCell id="c0JE4tnyjBpBKdoSzGa7-64" value="&lt;b&gt;Use case Diagram Admin&amp;nbsp;&lt;/b&gt;" style="text;html=1;align=center;verticalAlign=middle;whiteSpace=wrap;rounded=0;" vertex="1" parent="1">
          <mxGeometry x="315" y="-20" width="197" height="30" as="geometry" />
        </mxCell>
      </root>
    </mxGraphModel>
  </diagram>
</mxfile>
